G04 #@! TF.FileFunction,Copper,L2,Bot,Signal*
%FSLAX46Y46*%
G04 Gerber Fmt 4.6, Leading zero omitted, Abs format (unit mm)*
G04 Created by KiCad (PCBNEW 4.0.7) date 01/05/18 13:24:08*
%MOMM*%
%LPD*%
G01*
G04 APERTURE LIST*
%ADD10C,0.100000*%
%ADD11O,2.800000X1.524000*%
%ADD12C,1.800000*%
%ADD13O,1.981200X3.962400*%
%ADD14O,3.962400X1.981200*%
%ADD15C,1.998980*%
%ADD16R,1.574800X2.286000*%
%ADD17O,1.574800X2.286000*%
%ADD18R,1.700000X1.700000*%
%ADD19O,1.700000X1.700000*%
%ADD20C,4.064000*%
%ADD21C,1.500000*%
%ADD22C,0.800000*%
%ADD23C,1.000000*%
G04 APERTURE END LIST*
D10*
D11*
X74930000Y-77470000D03*
X74930000Y-62230000D03*
X106680000Y-77470000D03*
X106680000Y-62230000D03*
D12*
X83820000Y-77470000D03*
X86360000Y-77470000D03*
D13*
X26670000Y-71120000D03*
X31670000Y-71120000D03*
X39370000Y-71120000D03*
X44370000Y-71120000D03*
D14*
X116840000Y-71120000D03*
X116840000Y-76120000D03*
X116840000Y-87630000D03*
X116840000Y-92630000D03*
X116840000Y-107950000D03*
X116840000Y-112950000D03*
D13*
X39370000Y-107950000D03*
X34370000Y-107950000D03*
X24370000Y-107950000D03*
X29370000Y-107950000D03*
X63500000Y-107950000D03*
X58500000Y-107950000D03*
X48500000Y-107950000D03*
X53500000Y-107950000D03*
D15*
X53340000Y-71120000D03*
X68340000Y-71120000D03*
D16*
X27940000Y-96520000D03*
D17*
X30480000Y-96520000D03*
X33020000Y-96520000D03*
X35560000Y-96520000D03*
X38100000Y-96520000D03*
X40640000Y-96520000D03*
X43180000Y-96520000D03*
X45720000Y-96520000D03*
X48260000Y-96520000D03*
X50800000Y-96520000D03*
X53340000Y-96520000D03*
X55880000Y-96520000D03*
X58420000Y-96520000D03*
X60960000Y-96520000D03*
X63500000Y-96520000D03*
X63500000Y-81280000D03*
X60960000Y-81280000D03*
X58420000Y-81280000D03*
X55880000Y-81280000D03*
X53340000Y-81280000D03*
X50800000Y-81280000D03*
X48260000Y-81280000D03*
X45720000Y-81280000D03*
X43180000Y-81280000D03*
X40640000Y-81280000D03*
X38100000Y-81280000D03*
X35560000Y-81280000D03*
X33020000Y-81280000D03*
X30480000Y-81280000D03*
X27940000Y-81280000D03*
D11*
X74930000Y-97790000D03*
X74930000Y-82550000D03*
X106680000Y-97790000D03*
X106680000Y-82550000D03*
D12*
X83820000Y-97790000D03*
X86360000Y-97790000D03*
D11*
X74930000Y-118110000D03*
X74930000Y-102870000D03*
X106680000Y-118110000D03*
X106680000Y-102870000D03*
D12*
X83820000Y-118110000D03*
X86360000Y-118110000D03*
D18*
X21590000Y-85090000D03*
D19*
X21590000Y-87630000D03*
X21590000Y-90170000D03*
X21590000Y-92710000D03*
D20*
X119380000Y-62230000D03*
X118110000Y-121920000D03*
X22860000Y-120650000D03*
X21590000Y-62230000D03*
D21*
X74930000Y-118110000D02*
X73660000Y-118110000D01*
X73660000Y-118110000D02*
X69850000Y-114300000D01*
X69850000Y-114300000D02*
X69850000Y-97790000D01*
X74930000Y-77470000D02*
X73660000Y-77470000D01*
X73660000Y-77470000D02*
X69850000Y-81280000D01*
X69850000Y-97790000D02*
X74930000Y-97790000D01*
X69850000Y-81280000D02*
X69850000Y-97790000D01*
X26670000Y-71120000D02*
X26670000Y-77470000D01*
X27940000Y-78740000D02*
X27940000Y-81280000D01*
X26670000Y-77470000D02*
X27940000Y-78740000D01*
X21590000Y-87630000D02*
X27940000Y-87630000D01*
X30480000Y-85090000D02*
X30480000Y-81280000D01*
X27940000Y-87630000D02*
X30480000Y-85090000D01*
X29370000Y-107950000D02*
X29370000Y-117000000D01*
X86360000Y-120650000D02*
X86360000Y-118110000D01*
X85090000Y-121920000D02*
X86360000Y-120650000D01*
X34290000Y-121920000D02*
X85090000Y-121920000D01*
X29370000Y-117000000D02*
X34290000Y-121920000D01*
X86360000Y-118110000D02*
X86360000Y-110490000D01*
X86360000Y-110490000D02*
X78740000Y-102870000D01*
X86360000Y-97790000D02*
X86360000Y-93980000D01*
X86360000Y-93980000D02*
X78740000Y-93980000D01*
X86360000Y-77470000D02*
X86360000Y-72390000D01*
X86360000Y-72390000D02*
X78740000Y-72390000D01*
X31670000Y-71120000D02*
X31670000Y-76280000D01*
X30480000Y-77470000D02*
X30480000Y-81280000D01*
X31670000Y-76280000D02*
X30480000Y-77470000D01*
X68340000Y-71120000D02*
X68340000Y-62230000D01*
X68340000Y-62230000D02*
X67310000Y-62230000D01*
X78740000Y-82550000D02*
X78740000Y-93980000D01*
X78740000Y-93980000D02*
X78740000Y-102870000D01*
X78740000Y-102870000D02*
X74930000Y-102870000D01*
X74930000Y-62230000D02*
X77470000Y-62230000D01*
X78740000Y-82550000D02*
X74930000Y-82550000D01*
X78740000Y-63500000D02*
X78740000Y-72390000D01*
X78740000Y-72390000D02*
X78740000Y-82550000D01*
X77470000Y-62230000D02*
X78740000Y-63500000D01*
X31670000Y-71120000D02*
X31670000Y-63580000D01*
X33020000Y-62230000D02*
X67310000Y-62230000D01*
X67310000Y-62230000D02*
X74930000Y-62230000D01*
X31670000Y-63580000D02*
X33020000Y-62230000D01*
D22*
X63500000Y-107950000D02*
X63500000Y-109220000D01*
X63500000Y-109220000D02*
X60960000Y-111760000D01*
X60960000Y-111760000D02*
X41910000Y-111760000D01*
X41910000Y-111760000D02*
X39370000Y-109220000D01*
X39370000Y-109220000D02*
X39370000Y-107950000D01*
X39370000Y-71120000D02*
X36830000Y-71120000D01*
X35560000Y-72390000D02*
X35560000Y-81280000D01*
X36830000Y-71120000D02*
X35560000Y-72390000D01*
X53340000Y-71120000D02*
X53340000Y-74930000D01*
X55880000Y-77470000D02*
X55880000Y-81280000D01*
X53340000Y-74930000D02*
X55880000Y-77470000D01*
X44370000Y-71120000D02*
X53340000Y-71120000D01*
D21*
X106680000Y-77470000D02*
X113030000Y-71120000D01*
X113030000Y-71120000D02*
X116840000Y-71120000D01*
X106680000Y-97790000D02*
X106680000Y-92710000D01*
X111760000Y-87630000D02*
X116840000Y-87630000D01*
X106680000Y-92710000D02*
X111760000Y-87630000D01*
X106680000Y-118110000D02*
X106680000Y-111760000D01*
X110490000Y-107950000D02*
X116840000Y-107950000D01*
X106680000Y-111760000D02*
X110490000Y-107950000D01*
D22*
X34370000Y-107950000D02*
X34370000Y-104060000D01*
X38100000Y-100330000D02*
X38100000Y-96520000D01*
X34370000Y-104060000D02*
X38100000Y-100330000D01*
X58500000Y-107950000D02*
X58500000Y-105490000D01*
X43180000Y-100330000D02*
X43180000Y-96520000D01*
X45720000Y-102870000D02*
X43180000Y-100330000D01*
X55880000Y-102870000D02*
X45720000Y-102870000D01*
X58500000Y-105490000D02*
X55880000Y-102870000D01*
D23*
X21590000Y-90170000D02*
X26670000Y-90170000D01*
X30480000Y-93980000D02*
X30480000Y-96520000D01*
X26670000Y-90170000D02*
X30480000Y-93980000D01*
X21590000Y-92710000D02*
X25400000Y-92710000D01*
X27940000Y-95250000D02*
X27940000Y-96520000D01*
X25400000Y-92710000D02*
X27940000Y-95250000D01*
M02*
