G04 #@! TF.FileFunction,Soldermask,Bot*
%FSLAX46Y46*%
G04 Gerber Fmt 4.6, Leading zero omitted, Abs format (unit mm)*
G04 Created by KiCad (PCBNEW 4.0.7) date 01/05/18 13:24:08*
%MOMM*%
%LPD*%
G01*
G04 APERTURE LIST*
%ADD10C,0.100000*%
%ADD11O,2.800000X1.524000*%
%ADD12C,1.800000*%
%ADD13O,1.981200X3.962400*%
%ADD14O,3.962400X1.981200*%
%ADD15C,1.998980*%
%ADD16R,1.574800X2.286000*%
%ADD17O,1.574800X2.286000*%
%ADD18R,1.700000X1.700000*%
%ADD19O,1.700000X1.700000*%
%ADD20C,4.064000*%
G04 APERTURE END LIST*
D10*
D11*
X74930000Y-77470000D03*
X74930000Y-62230000D03*
X106680000Y-77470000D03*
X106680000Y-62230000D03*
D12*
X83820000Y-77470000D03*
X86360000Y-77470000D03*
D13*
X26670000Y-71120000D03*
X31670000Y-71120000D03*
X39370000Y-71120000D03*
X44370000Y-71120000D03*
D14*
X116840000Y-71120000D03*
X116840000Y-76120000D03*
X116840000Y-87630000D03*
X116840000Y-92630000D03*
X116840000Y-107950000D03*
X116840000Y-112950000D03*
D13*
X39370000Y-107950000D03*
X34370000Y-107950000D03*
X24370000Y-107950000D03*
X29370000Y-107950000D03*
X63500000Y-107950000D03*
X58500000Y-107950000D03*
X48500000Y-107950000D03*
X53500000Y-107950000D03*
D15*
X53340000Y-71120000D03*
X68340000Y-71120000D03*
D16*
X27940000Y-96520000D03*
D17*
X30480000Y-96520000D03*
X33020000Y-96520000D03*
X35560000Y-96520000D03*
X38100000Y-96520000D03*
X40640000Y-96520000D03*
X43180000Y-96520000D03*
X45720000Y-96520000D03*
X48260000Y-96520000D03*
X50800000Y-96520000D03*
X53340000Y-96520000D03*
X55880000Y-96520000D03*
X58420000Y-96520000D03*
X60960000Y-96520000D03*
X63500000Y-96520000D03*
X63500000Y-81280000D03*
X60960000Y-81280000D03*
X58420000Y-81280000D03*
X55880000Y-81280000D03*
X53340000Y-81280000D03*
X50800000Y-81280000D03*
X48260000Y-81280000D03*
X45720000Y-81280000D03*
X43180000Y-81280000D03*
X40640000Y-81280000D03*
X38100000Y-81280000D03*
X35560000Y-81280000D03*
X33020000Y-81280000D03*
X30480000Y-81280000D03*
X27940000Y-81280000D03*
D11*
X74930000Y-97790000D03*
X74930000Y-82550000D03*
X106680000Y-97790000D03*
X106680000Y-82550000D03*
D12*
X83820000Y-97790000D03*
X86360000Y-97790000D03*
D11*
X74930000Y-118110000D03*
X74930000Y-102870000D03*
X106680000Y-118110000D03*
X106680000Y-102870000D03*
D12*
X83820000Y-118110000D03*
X86360000Y-118110000D03*
D18*
X21590000Y-85090000D03*
D19*
X21590000Y-87630000D03*
X21590000Y-90170000D03*
X21590000Y-92710000D03*
D20*
X119380000Y-62230000D03*
X118110000Y-121920000D03*
X22860000Y-120650000D03*
X21590000Y-62230000D03*
M02*
