%FSLAX45Y45*%
G04 Gerber Fmt 4.5, Leading zero omitted, Abs format (unit mm)*
G04 Created by KiCad (PCBNEW 4.0.7) date 01/04/18 12:39:34*
%MOMM*%
%LPD*%
G01*
G04 APERTURE LIST*
%ADD10C,0.127000*%
%ADD11C,0.100000*%
%ADD12C,0.200000*%
%ADD13C,0.300000*%
G04 APERTURE END LIST*
D10*
D11*
X1778000Y-5842000D02*
X1778000Y-5969000D01*
X12446000Y-5842000D02*
X1778000Y-5842000D01*
X12446000Y-12573000D02*
X12446000Y-5842000D01*
X1778000Y-12573000D02*
X12446000Y-12573000D01*
X1778000Y-5969000D02*
X1778000Y-12573000D01*
D12*
X7454900Y-6184900D02*
X7531100Y-6261100D01*
X7531100Y-6184900D02*
X7454900Y-6261100D01*
X7454900Y-7708900D02*
X7531100Y-7785100D01*
X7531100Y-7708900D02*
X7454900Y-7785100D01*
X7454900Y-8216900D02*
X7531100Y-8293100D01*
X7531100Y-8216900D02*
X7454900Y-8293100D01*
X7454900Y-9740900D02*
X7531100Y-9817100D01*
X7531100Y-9740900D02*
X7454900Y-9817100D01*
X7454900Y-10248900D02*
X7531100Y-10325100D01*
X7531100Y-10248900D02*
X7454900Y-10325100D01*
X7454900Y-11772900D02*
X7531100Y-11849100D01*
X7531100Y-11772900D02*
X7454900Y-11849100D01*
X8343900Y-7708900D02*
X8420100Y-7785100D01*
X8420100Y-7708900D02*
X8343900Y-7785100D01*
X8343900Y-9740900D02*
X8420100Y-9817100D01*
X8420100Y-9740900D02*
X8343900Y-9817100D01*
X8343900Y-11772900D02*
X8420100Y-11849100D01*
X8420100Y-11772900D02*
X8343900Y-11849100D01*
X8597900Y-7708900D02*
X8674100Y-7785100D01*
X8674100Y-7708900D02*
X8597900Y-7785100D01*
X8597900Y-9740900D02*
X8674100Y-9817100D01*
X8674100Y-9740900D02*
X8597900Y-9817100D01*
X8597900Y-11772900D02*
X8674100Y-11849100D01*
X8674100Y-11772900D02*
X8597900Y-11849100D01*
X10629900Y-6184900D02*
X10706100Y-6261100D01*
X10706100Y-6184900D02*
X10629900Y-6261100D01*
X10629900Y-7708900D02*
X10706100Y-7785100D01*
X10706100Y-7708900D02*
X10629900Y-7785100D01*
X10629900Y-8216900D02*
X10706100Y-8293100D01*
X10706100Y-8216900D02*
X10629900Y-8293100D01*
X10629900Y-9740900D02*
X10706100Y-9817100D01*
X10706100Y-9740900D02*
X10629900Y-9817100D01*
X10629900Y-10248900D02*
X10706100Y-10325100D01*
X10706100Y-10248900D02*
X10629900Y-10325100D01*
X10629900Y-11772900D02*
X10706100Y-11849100D01*
X10706100Y-11772900D02*
X10629900Y-11849100D01*
X2834640Y-8128000D02*
G75*
G03X2834640Y-8128000I-40640J0D01*
G01*
X2834640Y-9652000D02*
G75*
G03X2834640Y-9652000I-40640J0D01*
G01*
X3088640Y-8128000D02*
G75*
G03X3088640Y-8128000I-40640J0D01*
G01*
X3088640Y-9652000D02*
G75*
G03X3088640Y-9652000I-40640J0D01*
G01*
X3342640Y-8128000D02*
G75*
G03X3342640Y-8128000I-40640J0D01*
G01*
X3342640Y-9652000D02*
G75*
G03X3342640Y-9652000I-40640J0D01*
G01*
X3596640Y-8128000D02*
G75*
G03X3596640Y-8128000I-40640J0D01*
G01*
X3596640Y-9652000D02*
G75*
G03X3596640Y-9652000I-40640J0D01*
G01*
X3850640Y-8128000D02*
G75*
G03X3850640Y-8128000I-40640J0D01*
G01*
X3850640Y-9652000D02*
G75*
G03X3850640Y-9652000I-40640J0D01*
G01*
X4104640Y-8128000D02*
G75*
G03X4104640Y-8128000I-40640J0D01*
G01*
X4104640Y-9652000D02*
G75*
G03X4104640Y-9652000I-40640J0D01*
G01*
X4358640Y-8128000D02*
G75*
G03X4358640Y-8128000I-40640J0D01*
G01*
X4358640Y-9652000D02*
G75*
G03X4358640Y-9652000I-40640J0D01*
G01*
X4612640Y-8128000D02*
G75*
G03X4612640Y-8128000I-40640J0D01*
G01*
X4612640Y-9652000D02*
G75*
G03X4612640Y-9652000I-40640J0D01*
G01*
X4866640Y-8128000D02*
G75*
G03X4866640Y-8128000I-40640J0D01*
G01*
X4866640Y-9652000D02*
G75*
G03X4866640Y-9652000I-40640J0D01*
G01*
X5120640Y-8128000D02*
G75*
G03X5120640Y-8128000I-40640J0D01*
G01*
X5120640Y-9652000D02*
G75*
G03X5120640Y-9652000I-40640J0D01*
G01*
X5374640Y-8128000D02*
G75*
G03X5374640Y-8128000I-40640J0D01*
G01*
X5374640Y-9652000D02*
G75*
G03X5374640Y-9652000I-40640J0D01*
G01*
X5628640Y-8128000D02*
G75*
G03X5628640Y-8128000I-40640J0D01*
G01*
X5628640Y-9652000D02*
G75*
G03X5628640Y-9652000I-40640J0D01*
G01*
X5882640Y-8128000D02*
G75*
G03X5882640Y-8128000I-40640J0D01*
G01*
X5882640Y-9652000D02*
G75*
G03X5882640Y-9652000I-40640J0D01*
G01*
X6136640Y-8128000D02*
G75*
G03X6136640Y-8128000I-40640J0D01*
G01*
X6136640Y-9652000D02*
G75*
G03X6136640Y-9652000I-40640J0D01*
G01*
X6390640Y-8128000D02*
G75*
G03X6390640Y-8128000I-40640J0D01*
G01*
X6390640Y-9652000D02*
G75*
G03X6390640Y-9652000I-40640J0D01*
G01*
X2159000Y-8459000D02*
X2159000Y-8559000D01*
X2109000Y-8509000D02*
X2209000Y-8509000D01*
X2159000Y-8713000D02*
X2159000Y-8813000D01*
X2109000Y-8763000D02*
X2209000Y-8763000D01*
X2159000Y-8967000D02*
X2159000Y-9067000D01*
X2109000Y-9017000D02*
X2209000Y-9017000D01*
X2159000Y-9221000D02*
X2159000Y-9321000D01*
X2109000Y-9271000D02*
X2209000Y-9271000D01*
X5369383Y-7147382D02*
X5369383Y-7076617D01*
X5298618Y-7076617D01*
X5298618Y-7147382D01*
X5369383Y-7147382D01*
X6869382Y-7147382D02*
X6869382Y-7076617D01*
X6798617Y-7076617D01*
X6798617Y-7147382D01*
X6869382Y-7147382D01*
X2437000Y-10861040D02*
X2503040Y-10795000D01*
X2437000Y-10728960D01*
X2370960Y-10795000D01*
X2437000Y-10861040D01*
X2667000Y-7178040D02*
X2733040Y-7112000D01*
X2667000Y-7045960D01*
X2600960Y-7112000D01*
X2667000Y-7178040D01*
X2937000Y-10861040D02*
X3003040Y-10795000D01*
X2937000Y-10728960D01*
X2870960Y-10795000D01*
X2937000Y-10861040D01*
X3167000Y-7178040D02*
X3233040Y-7112000D01*
X3167000Y-7045960D01*
X3100960Y-7112000D01*
X3167000Y-7178040D01*
X3437000Y-10861040D02*
X3503040Y-10795000D01*
X3437000Y-10728960D01*
X3370960Y-10795000D01*
X3437000Y-10861040D01*
X3937000Y-7178040D02*
X4003040Y-7112000D01*
X3937000Y-7045960D01*
X3870960Y-7112000D01*
X3937000Y-7178040D01*
X3937000Y-10861040D02*
X4003040Y-10795000D01*
X3937000Y-10728960D01*
X3870960Y-10795000D01*
X3937000Y-10861040D01*
X4437000Y-7178040D02*
X4503040Y-7112000D01*
X4437000Y-7045960D01*
X4370960Y-7112000D01*
X4437000Y-7178040D01*
X4850000Y-10861040D02*
X4916040Y-10795000D01*
X4850000Y-10728960D01*
X4783960Y-10795000D01*
X4850000Y-10861040D01*
X5350000Y-10861040D02*
X5416040Y-10795000D01*
X5350000Y-10728960D01*
X5283960Y-10795000D01*
X5350000Y-10861040D01*
X5850000Y-10861040D02*
X5916040Y-10795000D01*
X5850000Y-10728960D01*
X5783960Y-10795000D01*
X5850000Y-10861040D01*
X6350000Y-10861040D02*
X6416040Y-10795000D01*
X6350000Y-10728960D01*
X6283960Y-10795000D01*
X6350000Y-10861040D01*
X11684000Y-7178040D02*
X11750040Y-7112000D01*
X11684000Y-7045960D01*
X11617960Y-7112000D01*
X11684000Y-7178040D01*
X11684000Y-7678040D02*
X11750040Y-7612000D01*
X11684000Y-7545960D01*
X11617960Y-7612000D01*
X11684000Y-7678040D01*
X11684000Y-8829040D02*
X11750040Y-8763000D01*
X11684000Y-8696960D01*
X11617960Y-8763000D01*
X11684000Y-8829040D01*
X11684000Y-9329040D02*
X11750040Y-9263000D01*
X11684000Y-9196960D01*
X11617960Y-9263000D01*
X11684000Y-9329040D01*
X11684000Y-10861040D02*
X11750040Y-10795000D01*
X11684000Y-10728960D01*
X11617960Y-10795000D01*
X11684000Y-10861040D01*
X11684000Y-11361040D02*
X11750040Y-11295000D01*
X11684000Y-11228960D01*
X11617960Y-11295000D01*
X11684000Y-11361040D01*
X2006600Y-6070600D02*
X2311400Y-6375400D01*
X2311400Y-6070600D02*
X2006600Y-6375400D01*
X2311400Y-6223000D02*
G75*
G03X2311400Y-6223000I-152400J0D01*
G01*
X2133600Y-11912600D02*
X2438400Y-12217400D01*
X2438400Y-11912600D02*
X2133600Y-12217400D01*
X2438400Y-12065000D02*
G75*
G03X2438400Y-12065000I-152400J0D01*
G01*
X11658600Y-12039600D02*
X11963400Y-12344400D01*
X11963400Y-12039600D02*
X11658600Y-12344400D01*
X11963400Y-12192000D02*
G75*
G03X11963400Y-12192000I-152400J0D01*
G01*
X11785600Y-6070600D02*
X12090400Y-6375400D01*
X12090400Y-6070600D02*
X11785600Y-6375400D01*
X12090400Y-6223000D02*
G75*
G03X12090400Y-6223000I-152400J0D01*
G01*
D13*
X2044428Y-13043714D02*
X2044428Y-12743714D01*
X2115857Y-12743714D01*
X2158714Y-12758000D01*
X2187286Y-12786571D01*
X2201571Y-12815143D01*
X2215857Y-12872286D01*
X2215857Y-12915143D01*
X2201571Y-12972286D01*
X2187286Y-13000857D01*
X2158714Y-13029429D01*
X2115857Y-13043714D01*
X2044428Y-13043714D01*
X2344429Y-13043714D02*
X2344429Y-12843714D01*
X2344429Y-12900857D02*
X2358714Y-12872286D01*
X2373000Y-12858000D01*
X2401571Y-12843714D01*
X2430143Y-12843714D01*
X2530143Y-13043714D02*
X2530143Y-12843714D01*
X2530143Y-12743714D02*
X2515857Y-12758000D01*
X2530143Y-12772286D01*
X2544429Y-12758000D01*
X2530143Y-12743714D01*
X2530143Y-12772286D01*
X2715857Y-13043714D02*
X2687286Y-13029429D01*
X2673000Y-13000857D01*
X2673000Y-12743714D01*
X2873000Y-13043714D02*
X2844428Y-13029429D01*
X2830143Y-13000857D01*
X2830143Y-12743714D01*
X3215857Y-13043714D02*
X3215857Y-12743714D01*
X3315857Y-12958000D01*
X3415857Y-12743714D01*
X3415857Y-13043714D01*
X3687286Y-13043714D02*
X3687286Y-12886571D01*
X3673000Y-12858000D01*
X3644428Y-12843714D01*
X3587286Y-12843714D01*
X3558714Y-12858000D01*
X3687286Y-13029429D02*
X3658714Y-13043714D01*
X3587286Y-13043714D01*
X3558714Y-13029429D01*
X3544428Y-13000857D01*
X3544428Y-12972286D01*
X3558714Y-12943714D01*
X3587286Y-12929429D01*
X3658714Y-12929429D01*
X3687286Y-12915143D01*
X3830143Y-12843714D02*
X3830143Y-13143714D01*
X3830143Y-12858000D02*
X3858714Y-12843714D01*
X3915857Y-12843714D01*
X3944428Y-12858000D01*
X3958714Y-12872286D01*
X3973000Y-12900857D01*
X3973000Y-12986571D01*
X3958714Y-13015143D01*
X3944428Y-13029429D01*
X3915857Y-13043714D01*
X3858714Y-13043714D01*
X3830143Y-13029429D01*
X4101571Y-13015143D02*
X4115857Y-13029429D01*
X4101571Y-13043714D01*
X4087286Y-13029429D01*
X4101571Y-13015143D01*
X4101571Y-13043714D01*
X4101571Y-12858000D02*
X4115857Y-12872286D01*
X4101571Y-12886571D01*
X4087286Y-12872286D01*
X4101571Y-12858000D01*
X4101571Y-12886571D01*
X1696800Y-13499900D02*
X1773000Y-13576100D01*
X1773000Y-13499900D02*
X1696800Y-13576100D01*
X2101571Y-13373714D02*
X2130143Y-13373714D01*
X2158714Y-13388000D01*
X2173000Y-13402286D01*
X2187286Y-13430857D01*
X2201571Y-13488000D01*
X2201571Y-13559429D01*
X2187286Y-13616571D01*
X2173000Y-13645143D01*
X2158714Y-13659429D01*
X2130143Y-13673714D01*
X2101571Y-13673714D01*
X2073000Y-13659429D01*
X2058714Y-13645143D01*
X2044428Y-13616571D01*
X2030143Y-13559429D01*
X2030143Y-13488000D01*
X2044428Y-13430857D01*
X2058714Y-13402286D01*
X2073000Y-13388000D01*
X2101571Y-13373714D01*
X2330143Y-13645143D02*
X2344429Y-13659429D01*
X2330143Y-13673714D01*
X2315857Y-13659429D01*
X2330143Y-13645143D01*
X2330143Y-13673714D01*
X2444428Y-13373714D02*
X2644428Y-13373714D01*
X2515857Y-13673714D01*
X2887286Y-13373714D02*
X2830143Y-13373714D01*
X2801571Y-13388000D01*
X2787286Y-13402286D01*
X2758714Y-13445143D01*
X2744429Y-13502286D01*
X2744429Y-13616571D01*
X2758714Y-13645143D01*
X2773000Y-13659429D01*
X2801571Y-13673714D01*
X2858714Y-13673714D01*
X2887286Y-13659429D01*
X2901571Y-13645143D01*
X2915857Y-13616571D01*
X2915857Y-13545143D01*
X2901571Y-13516571D01*
X2887286Y-13502286D01*
X2858714Y-13488000D01*
X2801571Y-13488000D01*
X2773000Y-13502286D01*
X2758714Y-13516571D01*
X2744429Y-13545143D01*
X3044428Y-13673714D02*
X3044428Y-13473714D01*
X3044428Y-13502286D02*
X3058714Y-13488000D01*
X3087286Y-13473714D01*
X3130143Y-13473714D01*
X3158714Y-13488000D01*
X3173000Y-13516571D01*
X3173000Y-13673714D01*
X3173000Y-13516571D02*
X3187286Y-13488000D01*
X3215857Y-13473714D01*
X3258714Y-13473714D01*
X3287286Y-13488000D01*
X3301571Y-13516571D01*
X3301571Y-13673714D01*
X3444428Y-13673714D02*
X3444428Y-13473714D01*
X3444428Y-13502286D02*
X3458714Y-13488000D01*
X3487286Y-13473714D01*
X3530143Y-13473714D01*
X3558714Y-13488000D01*
X3573000Y-13516571D01*
X3573000Y-13673714D01*
X3573000Y-13516571D02*
X3587286Y-13488000D01*
X3615857Y-13473714D01*
X3658714Y-13473714D01*
X3687286Y-13488000D01*
X3701571Y-13516571D01*
X3701571Y-13673714D01*
X4287286Y-13359429D02*
X4030143Y-13745143D01*
X4673000Y-13373714D02*
X4701571Y-13373714D01*
X4730143Y-13388000D01*
X4744428Y-13402286D01*
X4758714Y-13430857D01*
X4773000Y-13488000D01*
X4773000Y-13559429D01*
X4758714Y-13616571D01*
X4744428Y-13645143D01*
X4730143Y-13659429D01*
X4701571Y-13673714D01*
X4673000Y-13673714D01*
X4644428Y-13659429D01*
X4630143Y-13645143D01*
X4615857Y-13616571D01*
X4601571Y-13559429D01*
X4601571Y-13488000D01*
X4615857Y-13430857D01*
X4630143Y-13402286D01*
X4644428Y-13388000D01*
X4673000Y-13373714D01*
X4901571Y-13645143D02*
X4915857Y-13659429D01*
X4901571Y-13673714D01*
X4887286Y-13659429D01*
X4901571Y-13645143D01*
X4901571Y-13673714D01*
X5101571Y-13373714D02*
X5130143Y-13373714D01*
X5158714Y-13388000D01*
X5173000Y-13402286D01*
X5187286Y-13430857D01*
X5201571Y-13488000D01*
X5201571Y-13559429D01*
X5187286Y-13616571D01*
X5173000Y-13645143D01*
X5158714Y-13659429D01*
X5130143Y-13673714D01*
X5101571Y-13673714D01*
X5073000Y-13659429D01*
X5058714Y-13645143D01*
X5044428Y-13616571D01*
X5030143Y-13559429D01*
X5030143Y-13488000D01*
X5044428Y-13430857D01*
X5058714Y-13402286D01*
X5073000Y-13388000D01*
X5101571Y-13373714D01*
X5301571Y-13373714D02*
X5487286Y-13373714D01*
X5387286Y-13488000D01*
X5430143Y-13488000D01*
X5458714Y-13502286D01*
X5473000Y-13516571D01*
X5487286Y-13545143D01*
X5487286Y-13616571D01*
X5473000Y-13645143D01*
X5458714Y-13659429D01*
X5430143Y-13673714D01*
X5344428Y-13673714D01*
X5315857Y-13659429D01*
X5301571Y-13645143D01*
X5673000Y-13373714D02*
X5701571Y-13373714D01*
X5730143Y-13388000D01*
X5744428Y-13402286D01*
X5758714Y-13430857D01*
X5773000Y-13488000D01*
X5773000Y-13559429D01*
X5758714Y-13616571D01*
X5744428Y-13645143D01*
X5730143Y-13659429D01*
X5701571Y-13673714D01*
X5673000Y-13673714D01*
X5644428Y-13659429D01*
X5630143Y-13645143D01*
X5615857Y-13616571D01*
X5601571Y-13559429D01*
X5601571Y-13488000D01*
X5615857Y-13430857D01*
X5630143Y-13402286D01*
X5644428Y-13388000D01*
X5673000Y-13373714D01*
X5887286Y-13373714D02*
X5887286Y-13430857D01*
X6001571Y-13373714D02*
X6001571Y-13430857D01*
X6444428Y-13788000D02*
X6430143Y-13773714D01*
X6401571Y-13730857D01*
X6387285Y-13702286D01*
X6373000Y-13659429D01*
X6358714Y-13588000D01*
X6358714Y-13530857D01*
X6373000Y-13459429D01*
X6387285Y-13416571D01*
X6401571Y-13388000D01*
X6430143Y-13345143D01*
X6444428Y-13330857D01*
X6715857Y-13673714D02*
X6544428Y-13673714D01*
X6630143Y-13673714D02*
X6630143Y-13373714D01*
X6601571Y-13416571D01*
X6573000Y-13445143D01*
X6544428Y-13459429D01*
X6887285Y-13502286D02*
X6858714Y-13488000D01*
X6844428Y-13473714D01*
X6830143Y-13445143D01*
X6830143Y-13430857D01*
X6844428Y-13402286D01*
X6858714Y-13388000D01*
X6887285Y-13373714D01*
X6944428Y-13373714D01*
X6973000Y-13388000D01*
X6987285Y-13402286D01*
X7001571Y-13430857D01*
X7001571Y-13445143D01*
X6987285Y-13473714D01*
X6973000Y-13488000D01*
X6944428Y-13502286D01*
X6887285Y-13502286D01*
X6858714Y-13516571D01*
X6844428Y-13530857D01*
X6830143Y-13559429D01*
X6830143Y-13616571D01*
X6844428Y-13645143D01*
X6858714Y-13659429D01*
X6887285Y-13673714D01*
X6944428Y-13673714D01*
X6973000Y-13659429D01*
X6987285Y-13645143D01*
X7001571Y-13616571D01*
X7001571Y-13559429D01*
X6987285Y-13530857D01*
X6973000Y-13516571D01*
X6944428Y-13502286D01*
X7358714Y-13673714D02*
X7358714Y-13373714D01*
X7487285Y-13673714D02*
X7487285Y-13516571D01*
X7473000Y-13488000D01*
X7444428Y-13473714D01*
X7401571Y-13473714D01*
X7373000Y-13488000D01*
X7358714Y-13502286D01*
X7673000Y-13673714D02*
X7644428Y-13659429D01*
X7630143Y-13645143D01*
X7615857Y-13616571D01*
X7615857Y-13530857D01*
X7630143Y-13502286D01*
X7644428Y-13488000D01*
X7673000Y-13473714D01*
X7715857Y-13473714D01*
X7744428Y-13488000D01*
X7758714Y-13502286D01*
X7773000Y-13530857D01*
X7773000Y-13616571D01*
X7758714Y-13645143D01*
X7744428Y-13659429D01*
X7715857Y-13673714D01*
X7673000Y-13673714D01*
X7944428Y-13673714D02*
X7915857Y-13659429D01*
X7901571Y-13630857D01*
X7901571Y-13373714D01*
X8173000Y-13659429D02*
X8144428Y-13673714D01*
X8087286Y-13673714D01*
X8058714Y-13659429D01*
X8044428Y-13630857D01*
X8044428Y-13516571D01*
X8058714Y-13488000D01*
X8087286Y-13473714D01*
X8144428Y-13473714D01*
X8173000Y-13488000D01*
X8187286Y-13516571D01*
X8187286Y-13545143D01*
X8044428Y-13573714D01*
X8301571Y-13659429D02*
X8330143Y-13673714D01*
X8387286Y-13673714D01*
X8415857Y-13659429D01*
X8430143Y-13630857D01*
X8430143Y-13616571D01*
X8415857Y-13588000D01*
X8387286Y-13573714D01*
X8344428Y-13573714D01*
X8315857Y-13559429D01*
X8301571Y-13530857D01*
X8301571Y-13516571D01*
X8315857Y-13488000D01*
X8344428Y-13473714D01*
X8387286Y-13473714D01*
X8415857Y-13488000D01*
X8530143Y-13788000D02*
X8544429Y-13773714D01*
X8573000Y-13730857D01*
X8587286Y-13702286D01*
X8601571Y-13659429D01*
X8615857Y-13588000D01*
X8615857Y-13530857D01*
X8601571Y-13459429D01*
X8587286Y-13416571D01*
X8573000Y-13388000D01*
X8544429Y-13345143D01*
X8530143Y-13330857D01*
X1773000Y-13934000D02*
G75*
G03X1773000Y-13934000I-40640J0D01*
G01*
X2101571Y-13769714D02*
X2130143Y-13769714D01*
X2158714Y-13784000D01*
X2173000Y-13798286D01*
X2187286Y-13826857D01*
X2201571Y-13884000D01*
X2201571Y-13955429D01*
X2187286Y-14012571D01*
X2173000Y-14041143D01*
X2158714Y-14055429D01*
X2130143Y-14069714D01*
X2101571Y-14069714D01*
X2073000Y-14055429D01*
X2058714Y-14041143D01*
X2044428Y-14012571D01*
X2030143Y-13955429D01*
X2030143Y-13884000D01*
X2044428Y-13826857D01*
X2058714Y-13798286D01*
X2073000Y-13784000D01*
X2101571Y-13769714D01*
X2330143Y-14041143D02*
X2344429Y-14055429D01*
X2330143Y-14069714D01*
X2315857Y-14055429D01*
X2330143Y-14041143D01*
X2330143Y-14069714D01*
X2515857Y-13898286D02*
X2487286Y-13884000D01*
X2473000Y-13869714D01*
X2458714Y-13841143D01*
X2458714Y-13826857D01*
X2473000Y-13798286D01*
X2487286Y-13784000D01*
X2515857Y-13769714D01*
X2573000Y-13769714D01*
X2601571Y-13784000D01*
X2615857Y-13798286D01*
X2630143Y-13826857D01*
X2630143Y-13841143D01*
X2615857Y-13869714D01*
X2601571Y-13884000D01*
X2573000Y-13898286D01*
X2515857Y-13898286D01*
X2487286Y-13912571D01*
X2473000Y-13926857D01*
X2458714Y-13955429D01*
X2458714Y-14012571D01*
X2473000Y-14041143D01*
X2487286Y-14055429D01*
X2515857Y-14069714D01*
X2573000Y-14069714D01*
X2601571Y-14055429D01*
X2615857Y-14041143D01*
X2630143Y-14012571D01*
X2630143Y-13955429D01*
X2615857Y-13926857D01*
X2601571Y-13912571D01*
X2573000Y-13898286D01*
X2915857Y-14069714D02*
X2744429Y-14069714D01*
X2830143Y-14069714D02*
X2830143Y-13769714D01*
X2801571Y-13812571D01*
X2773000Y-13841143D01*
X2744429Y-13855429D01*
X3044428Y-14069714D02*
X3044428Y-13869714D01*
X3044428Y-13898286D02*
X3058714Y-13884000D01*
X3087286Y-13869714D01*
X3130143Y-13869714D01*
X3158714Y-13884000D01*
X3173000Y-13912571D01*
X3173000Y-14069714D01*
X3173000Y-13912571D02*
X3187286Y-13884000D01*
X3215857Y-13869714D01*
X3258714Y-13869714D01*
X3287286Y-13884000D01*
X3301571Y-13912571D01*
X3301571Y-14069714D01*
X3444428Y-14069714D02*
X3444428Y-13869714D01*
X3444428Y-13898286D02*
X3458714Y-13884000D01*
X3487286Y-13869714D01*
X3530143Y-13869714D01*
X3558714Y-13884000D01*
X3573000Y-13912571D01*
X3573000Y-14069714D01*
X3573000Y-13912571D02*
X3587286Y-13884000D01*
X3615857Y-13869714D01*
X3658714Y-13869714D01*
X3687286Y-13884000D01*
X3701571Y-13912571D01*
X3701571Y-14069714D01*
X4287286Y-13755429D02*
X4030143Y-14141143D01*
X4673000Y-13769714D02*
X4701571Y-13769714D01*
X4730143Y-13784000D01*
X4744428Y-13798286D01*
X4758714Y-13826857D01*
X4773000Y-13884000D01*
X4773000Y-13955429D01*
X4758714Y-14012571D01*
X4744428Y-14041143D01*
X4730143Y-14055429D01*
X4701571Y-14069714D01*
X4673000Y-14069714D01*
X4644428Y-14055429D01*
X4630143Y-14041143D01*
X4615857Y-14012571D01*
X4601571Y-13955429D01*
X4601571Y-13884000D01*
X4615857Y-13826857D01*
X4630143Y-13798286D01*
X4644428Y-13784000D01*
X4673000Y-13769714D01*
X4901571Y-14041143D02*
X4915857Y-14055429D01*
X4901571Y-14069714D01*
X4887286Y-14055429D01*
X4901571Y-14041143D01*
X4901571Y-14069714D01*
X5101571Y-13769714D02*
X5130143Y-13769714D01*
X5158714Y-13784000D01*
X5173000Y-13798286D01*
X5187286Y-13826857D01*
X5201571Y-13884000D01*
X5201571Y-13955429D01*
X5187286Y-14012571D01*
X5173000Y-14041143D01*
X5158714Y-14055429D01*
X5130143Y-14069714D01*
X5101571Y-14069714D01*
X5073000Y-14055429D01*
X5058714Y-14041143D01*
X5044428Y-14012571D01*
X5030143Y-13955429D01*
X5030143Y-13884000D01*
X5044428Y-13826857D01*
X5058714Y-13798286D01*
X5073000Y-13784000D01*
X5101571Y-13769714D01*
X5301571Y-13769714D02*
X5487286Y-13769714D01*
X5387286Y-13884000D01*
X5430143Y-13884000D01*
X5458714Y-13898286D01*
X5473000Y-13912571D01*
X5487286Y-13941143D01*
X5487286Y-14012571D01*
X5473000Y-14041143D01*
X5458714Y-14055429D01*
X5430143Y-14069714D01*
X5344428Y-14069714D01*
X5315857Y-14055429D01*
X5301571Y-14041143D01*
X5601571Y-13798286D02*
X5615857Y-13784000D01*
X5644428Y-13769714D01*
X5715857Y-13769714D01*
X5744428Y-13784000D01*
X5758714Y-13798286D01*
X5773000Y-13826857D01*
X5773000Y-13855429D01*
X5758714Y-13898286D01*
X5587286Y-14069714D01*
X5773000Y-14069714D01*
X5887286Y-13769714D02*
X5887286Y-13826857D01*
X6001571Y-13769714D02*
X6001571Y-13826857D01*
X6444428Y-14184000D02*
X6430143Y-14169714D01*
X6401571Y-14126857D01*
X6387285Y-14098286D01*
X6373000Y-14055429D01*
X6358714Y-13984000D01*
X6358714Y-13926857D01*
X6373000Y-13855429D01*
X6387285Y-13812571D01*
X6401571Y-13784000D01*
X6430143Y-13741143D01*
X6444428Y-13726857D01*
X6530143Y-13769714D02*
X6715857Y-13769714D01*
X6615857Y-13884000D01*
X6658714Y-13884000D01*
X6687285Y-13898286D01*
X6701571Y-13912571D01*
X6715857Y-13941143D01*
X6715857Y-14012571D01*
X6701571Y-14041143D01*
X6687285Y-14055429D01*
X6658714Y-14069714D01*
X6573000Y-14069714D01*
X6544428Y-14055429D01*
X6530143Y-14041143D01*
X6901571Y-13769714D02*
X6930143Y-13769714D01*
X6958714Y-13784000D01*
X6973000Y-13798286D01*
X6987285Y-13826857D01*
X7001571Y-13884000D01*
X7001571Y-13955429D01*
X6987285Y-14012571D01*
X6973000Y-14041143D01*
X6958714Y-14055429D01*
X6930143Y-14069714D01*
X6901571Y-14069714D01*
X6873000Y-14055429D01*
X6858714Y-14041143D01*
X6844428Y-14012571D01*
X6830143Y-13955429D01*
X6830143Y-13884000D01*
X6844428Y-13826857D01*
X6858714Y-13798286D01*
X6873000Y-13784000D01*
X6901571Y-13769714D01*
X7358714Y-14069714D02*
X7358714Y-13769714D01*
X7487285Y-14069714D02*
X7487285Y-13912571D01*
X7473000Y-13884000D01*
X7444428Y-13869714D01*
X7401571Y-13869714D01*
X7373000Y-13884000D01*
X7358714Y-13898286D01*
X7673000Y-14069714D02*
X7644428Y-14055429D01*
X7630143Y-14041143D01*
X7615857Y-14012571D01*
X7615857Y-13926857D01*
X7630143Y-13898286D01*
X7644428Y-13884000D01*
X7673000Y-13869714D01*
X7715857Y-13869714D01*
X7744428Y-13884000D01*
X7758714Y-13898286D01*
X7773000Y-13926857D01*
X7773000Y-14012571D01*
X7758714Y-14041143D01*
X7744428Y-14055429D01*
X7715857Y-14069714D01*
X7673000Y-14069714D01*
X7944428Y-14069714D02*
X7915857Y-14055429D01*
X7901571Y-14026857D01*
X7901571Y-13769714D01*
X8173000Y-14055429D02*
X8144428Y-14069714D01*
X8087286Y-14069714D01*
X8058714Y-14055429D01*
X8044428Y-14026857D01*
X8044428Y-13912571D01*
X8058714Y-13884000D01*
X8087286Y-13869714D01*
X8144428Y-13869714D01*
X8173000Y-13884000D01*
X8187286Y-13912571D01*
X8187286Y-13941143D01*
X8044428Y-13969714D01*
X8301571Y-14055429D02*
X8330143Y-14069714D01*
X8387286Y-14069714D01*
X8415857Y-14055429D01*
X8430143Y-14026857D01*
X8430143Y-14012571D01*
X8415857Y-13984000D01*
X8387286Y-13969714D01*
X8344428Y-13969714D01*
X8315857Y-13955429D01*
X8301571Y-13926857D01*
X8301571Y-13912571D01*
X8315857Y-13884000D01*
X8344428Y-13869714D01*
X8387286Y-13869714D01*
X8415857Y-13884000D01*
X8530143Y-14184000D02*
X8544429Y-14169714D01*
X8573000Y-14126857D01*
X8587286Y-14098286D01*
X8601571Y-14055429D01*
X8615857Y-13984000D01*
X8615857Y-13926857D01*
X8601571Y-13855429D01*
X8587286Y-13812571D01*
X8573000Y-13784000D01*
X8544429Y-13741143D01*
X8530143Y-13726857D01*
X1723000Y-14280000D02*
X1723000Y-14380000D01*
X1673000Y-14330000D02*
X1773000Y-14330000D01*
X2201571Y-14465714D02*
X2030143Y-14465714D01*
X2115857Y-14465714D02*
X2115857Y-14165714D01*
X2087286Y-14208571D01*
X2058714Y-14237143D01*
X2030143Y-14251429D01*
X2330143Y-14437143D02*
X2344429Y-14451429D01*
X2330143Y-14465714D01*
X2315857Y-14451429D01*
X2330143Y-14437143D01*
X2330143Y-14465714D01*
X2530143Y-14165714D02*
X2558714Y-14165714D01*
X2587286Y-14180000D01*
X2601571Y-14194286D01*
X2615857Y-14222857D01*
X2630143Y-14280000D01*
X2630143Y-14351429D01*
X2615857Y-14408571D01*
X2601571Y-14437143D01*
X2587286Y-14451429D01*
X2558714Y-14465714D01*
X2530143Y-14465714D01*
X2501571Y-14451429D01*
X2487286Y-14437143D01*
X2473000Y-14408571D01*
X2458714Y-14351429D01*
X2458714Y-14280000D01*
X2473000Y-14222857D01*
X2487286Y-14194286D01*
X2501571Y-14180000D01*
X2530143Y-14165714D01*
X2815857Y-14165714D02*
X2844428Y-14165714D01*
X2873000Y-14180000D01*
X2887286Y-14194286D01*
X2901571Y-14222857D01*
X2915857Y-14280000D01*
X2915857Y-14351429D01*
X2901571Y-14408571D01*
X2887286Y-14437143D01*
X2873000Y-14451429D01*
X2844428Y-14465714D01*
X2815857Y-14465714D01*
X2787286Y-14451429D01*
X2773000Y-14437143D01*
X2758714Y-14408571D01*
X2744429Y-14351429D01*
X2744429Y-14280000D01*
X2758714Y-14222857D01*
X2773000Y-14194286D01*
X2787286Y-14180000D01*
X2815857Y-14165714D01*
X3044428Y-14465714D02*
X3044428Y-14265714D01*
X3044428Y-14294286D02*
X3058714Y-14280000D01*
X3087286Y-14265714D01*
X3130143Y-14265714D01*
X3158714Y-14280000D01*
X3173000Y-14308571D01*
X3173000Y-14465714D01*
X3173000Y-14308571D02*
X3187286Y-14280000D01*
X3215857Y-14265714D01*
X3258714Y-14265714D01*
X3287286Y-14280000D01*
X3301571Y-14308571D01*
X3301571Y-14465714D01*
X3444428Y-14465714D02*
X3444428Y-14265714D01*
X3444428Y-14294286D02*
X3458714Y-14280000D01*
X3487286Y-14265714D01*
X3530143Y-14265714D01*
X3558714Y-14280000D01*
X3573000Y-14308571D01*
X3573000Y-14465714D01*
X3573000Y-14308571D02*
X3587286Y-14280000D01*
X3615857Y-14265714D01*
X3658714Y-14265714D01*
X3687286Y-14280000D01*
X3701571Y-14308571D01*
X3701571Y-14465714D01*
X4287286Y-14151429D02*
X4030143Y-14537143D01*
X4673000Y-14165714D02*
X4701571Y-14165714D01*
X4730143Y-14180000D01*
X4744428Y-14194286D01*
X4758714Y-14222857D01*
X4773000Y-14280000D01*
X4773000Y-14351429D01*
X4758714Y-14408571D01*
X4744428Y-14437143D01*
X4730143Y-14451429D01*
X4701571Y-14465714D01*
X4673000Y-14465714D01*
X4644428Y-14451429D01*
X4630143Y-14437143D01*
X4615857Y-14408571D01*
X4601571Y-14351429D01*
X4601571Y-14280000D01*
X4615857Y-14222857D01*
X4630143Y-14194286D01*
X4644428Y-14180000D01*
X4673000Y-14165714D01*
X4901571Y-14437143D02*
X4915857Y-14451429D01*
X4901571Y-14465714D01*
X4887286Y-14451429D01*
X4901571Y-14437143D01*
X4901571Y-14465714D01*
X5101571Y-14165714D02*
X5130143Y-14165714D01*
X5158714Y-14180000D01*
X5173000Y-14194286D01*
X5187286Y-14222857D01*
X5201571Y-14280000D01*
X5201571Y-14351429D01*
X5187286Y-14408571D01*
X5173000Y-14437143D01*
X5158714Y-14451429D01*
X5130143Y-14465714D01*
X5101571Y-14465714D01*
X5073000Y-14451429D01*
X5058714Y-14437143D01*
X5044428Y-14408571D01*
X5030143Y-14351429D01*
X5030143Y-14280000D01*
X5044428Y-14222857D01*
X5058714Y-14194286D01*
X5073000Y-14180000D01*
X5101571Y-14165714D01*
X5301571Y-14165714D02*
X5487286Y-14165714D01*
X5387286Y-14280000D01*
X5430143Y-14280000D01*
X5458714Y-14294286D01*
X5473000Y-14308571D01*
X5487286Y-14337143D01*
X5487286Y-14408571D01*
X5473000Y-14437143D01*
X5458714Y-14451429D01*
X5430143Y-14465714D01*
X5344428Y-14465714D01*
X5315857Y-14451429D01*
X5301571Y-14437143D01*
X5630143Y-14465714D02*
X5687285Y-14465714D01*
X5715857Y-14451429D01*
X5730143Y-14437143D01*
X5758714Y-14394286D01*
X5773000Y-14337143D01*
X5773000Y-14222857D01*
X5758714Y-14194286D01*
X5744428Y-14180000D01*
X5715857Y-14165714D01*
X5658714Y-14165714D01*
X5630143Y-14180000D01*
X5615857Y-14194286D01*
X5601571Y-14222857D01*
X5601571Y-14294286D01*
X5615857Y-14322857D01*
X5630143Y-14337143D01*
X5658714Y-14351429D01*
X5715857Y-14351429D01*
X5744428Y-14337143D01*
X5758714Y-14322857D01*
X5773000Y-14294286D01*
X5887286Y-14165714D02*
X5887286Y-14222857D01*
X6001571Y-14165714D02*
X6001571Y-14222857D01*
X6444428Y-14580000D02*
X6430143Y-14565714D01*
X6401571Y-14522857D01*
X6387285Y-14494286D01*
X6373000Y-14451429D01*
X6358714Y-14380000D01*
X6358714Y-14322857D01*
X6373000Y-14251429D01*
X6387285Y-14208571D01*
X6401571Y-14180000D01*
X6430143Y-14137143D01*
X6444428Y-14122857D01*
X6687285Y-14265714D02*
X6687285Y-14465714D01*
X6615857Y-14151429D02*
X6544428Y-14365714D01*
X6730143Y-14365714D01*
X7073000Y-14465714D02*
X7073000Y-14165714D01*
X7201571Y-14465714D02*
X7201571Y-14308571D01*
X7187285Y-14280000D01*
X7158714Y-14265714D01*
X7115857Y-14265714D01*
X7087285Y-14280000D01*
X7073000Y-14294286D01*
X7387285Y-14465714D02*
X7358714Y-14451429D01*
X7344428Y-14437143D01*
X7330143Y-14408571D01*
X7330143Y-14322857D01*
X7344428Y-14294286D01*
X7358714Y-14280000D01*
X7387285Y-14265714D01*
X7430143Y-14265714D01*
X7458714Y-14280000D01*
X7473000Y-14294286D01*
X7487285Y-14322857D01*
X7487285Y-14408571D01*
X7473000Y-14437143D01*
X7458714Y-14451429D01*
X7430143Y-14465714D01*
X7387285Y-14465714D01*
X7658714Y-14465714D02*
X7630143Y-14451429D01*
X7615857Y-14422857D01*
X7615857Y-14165714D01*
X7887286Y-14451429D02*
X7858714Y-14465714D01*
X7801571Y-14465714D01*
X7773000Y-14451429D01*
X7758714Y-14422857D01*
X7758714Y-14308571D01*
X7773000Y-14280000D01*
X7801571Y-14265714D01*
X7858714Y-14265714D01*
X7887286Y-14280000D01*
X7901571Y-14308571D01*
X7901571Y-14337143D01*
X7758714Y-14365714D01*
X8015857Y-14451429D02*
X8044428Y-14465714D01*
X8101571Y-14465714D01*
X8130143Y-14451429D01*
X8144428Y-14422857D01*
X8144428Y-14408571D01*
X8130143Y-14380000D01*
X8101571Y-14365714D01*
X8058714Y-14365714D01*
X8030143Y-14351429D01*
X8015857Y-14322857D01*
X8015857Y-14308571D01*
X8030143Y-14280000D01*
X8058714Y-14265714D01*
X8101571Y-14265714D01*
X8130143Y-14280000D01*
X8244428Y-14580000D02*
X8258714Y-14565714D01*
X8287286Y-14522857D01*
X8301571Y-14494286D01*
X8315857Y-14451429D01*
X8330143Y-14380000D01*
X8330143Y-14322857D01*
X8315857Y-14251429D01*
X8301571Y-14208571D01*
X8287286Y-14180000D01*
X8258714Y-14137143D01*
X8244428Y-14122857D01*
X1758344Y-14761383D02*
X1758344Y-14690618D01*
X1687579Y-14690618D01*
X1687579Y-14761383D01*
X1758344Y-14761383D01*
X2201571Y-14861714D02*
X2030143Y-14861714D01*
X2115857Y-14861714D02*
X2115857Y-14561714D01*
X2087286Y-14604571D01*
X2058714Y-14633143D01*
X2030143Y-14647429D01*
X2330143Y-14833143D02*
X2344429Y-14847429D01*
X2330143Y-14861714D01*
X2315857Y-14847429D01*
X2330143Y-14833143D01*
X2330143Y-14861714D01*
X2530143Y-14561714D02*
X2558714Y-14561714D01*
X2587286Y-14576000D01*
X2601571Y-14590286D01*
X2615857Y-14618857D01*
X2630143Y-14676000D01*
X2630143Y-14747429D01*
X2615857Y-14804571D01*
X2601571Y-14833143D01*
X2587286Y-14847429D01*
X2558714Y-14861714D01*
X2530143Y-14861714D01*
X2501571Y-14847429D01*
X2487286Y-14833143D01*
X2473000Y-14804571D01*
X2458714Y-14747429D01*
X2458714Y-14676000D01*
X2473000Y-14618857D01*
X2487286Y-14590286D01*
X2501571Y-14576000D01*
X2530143Y-14561714D01*
X2815857Y-14561714D02*
X2844428Y-14561714D01*
X2873000Y-14576000D01*
X2887286Y-14590286D01*
X2901571Y-14618857D01*
X2915857Y-14676000D01*
X2915857Y-14747429D01*
X2901571Y-14804571D01*
X2887286Y-14833143D01*
X2873000Y-14847429D01*
X2844428Y-14861714D01*
X2815857Y-14861714D01*
X2787286Y-14847429D01*
X2773000Y-14833143D01*
X2758714Y-14804571D01*
X2744429Y-14747429D01*
X2744429Y-14676000D01*
X2758714Y-14618857D01*
X2773000Y-14590286D01*
X2787286Y-14576000D01*
X2815857Y-14561714D01*
X3044428Y-14861714D02*
X3044428Y-14661714D01*
X3044428Y-14690286D02*
X3058714Y-14676000D01*
X3087286Y-14661714D01*
X3130143Y-14661714D01*
X3158714Y-14676000D01*
X3173000Y-14704571D01*
X3173000Y-14861714D01*
X3173000Y-14704571D02*
X3187286Y-14676000D01*
X3215857Y-14661714D01*
X3258714Y-14661714D01*
X3287286Y-14676000D01*
X3301571Y-14704571D01*
X3301571Y-14861714D01*
X3444428Y-14861714D02*
X3444428Y-14661714D01*
X3444428Y-14690286D02*
X3458714Y-14676000D01*
X3487286Y-14661714D01*
X3530143Y-14661714D01*
X3558714Y-14676000D01*
X3573000Y-14704571D01*
X3573000Y-14861714D01*
X3573000Y-14704571D02*
X3587286Y-14676000D01*
X3615857Y-14661714D01*
X3658714Y-14661714D01*
X3687286Y-14676000D01*
X3701571Y-14704571D01*
X3701571Y-14861714D01*
X4287286Y-14547429D02*
X4030143Y-14933143D01*
X4673000Y-14561714D02*
X4701571Y-14561714D01*
X4730143Y-14576000D01*
X4744428Y-14590286D01*
X4758714Y-14618857D01*
X4773000Y-14676000D01*
X4773000Y-14747429D01*
X4758714Y-14804571D01*
X4744428Y-14833143D01*
X4730143Y-14847429D01*
X4701571Y-14861714D01*
X4673000Y-14861714D01*
X4644428Y-14847429D01*
X4630143Y-14833143D01*
X4615857Y-14804571D01*
X4601571Y-14747429D01*
X4601571Y-14676000D01*
X4615857Y-14618857D01*
X4630143Y-14590286D01*
X4644428Y-14576000D01*
X4673000Y-14561714D01*
X4901571Y-14833143D02*
X4915857Y-14847429D01*
X4901571Y-14861714D01*
X4887286Y-14847429D01*
X4901571Y-14833143D01*
X4901571Y-14861714D01*
X5101571Y-14561714D02*
X5130143Y-14561714D01*
X5158714Y-14576000D01*
X5173000Y-14590286D01*
X5187286Y-14618857D01*
X5201571Y-14676000D01*
X5201571Y-14747429D01*
X5187286Y-14804571D01*
X5173000Y-14833143D01*
X5158714Y-14847429D01*
X5130143Y-14861714D01*
X5101571Y-14861714D01*
X5073000Y-14847429D01*
X5058714Y-14833143D01*
X5044428Y-14804571D01*
X5030143Y-14747429D01*
X5030143Y-14676000D01*
X5044428Y-14618857D01*
X5058714Y-14590286D01*
X5073000Y-14576000D01*
X5101571Y-14561714D01*
X5301571Y-14561714D02*
X5487286Y-14561714D01*
X5387286Y-14676000D01*
X5430143Y-14676000D01*
X5458714Y-14690286D01*
X5473000Y-14704571D01*
X5487286Y-14733143D01*
X5487286Y-14804571D01*
X5473000Y-14833143D01*
X5458714Y-14847429D01*
X5430143Y-14861714D01*
X5344428Y-14861714D01*
X5315857Y-14847429D01*
X5301571Y-14833143D01*
X5630143Y-14861714D02*
X5687285Y-14861714D01*
X5715857Y-14847429D01*
X5730143Y-14833143D01*
X5758714Y-14790286D01*
X5773000Y-14733143D01*
X5773000Y-14618857D01*
X5758714Y-14590286D01*
X5744428Y-14576000D01*
X5715857Y-14561714D01*
X5658714Y-14561714D01*
X5630143Y-14576000D01*
X5615857Y-14590286D01*
X5601571Y-14618857D01*
X5601571Y-14690286D01*
X5615857Y-14718857D01*
X5630143Y-14733143D01*
X5658714Y-14747429D01*
X5715857Y-14747429D01*
X5744428Y-14733143D01*
X5758714Y-14718857D01*
X5773000Y-14690286D01*
X5887286Y-14561714D02*
X5887286Y-14618857D01*
X6001571Y-14561714D02*
X6001571Y-14618857D01*
X6444428Y-14976000D02*
X6430143Y-14961714D01*
X6401571Y-14918857D01*
X6387285Y-14890286D01*
X6373000Y-14847429D01*
X6358714Y-14776000D01*
X6358714Y-14718857D01*
X6373000Y-14647429D01*
X6387285Y-14604571D01*
X6401571Y-14576000D01*
X6430143Y-14533143D01*
X6444428Y-14518857D01*
X6544428Y-14590286D02*
X6558714Y-14576000D01*
X6587285Y-14561714D01*
X6658714Y-14561714D01*
X6687285Y-14576000D01*
X6701571Y-14590286D01*
X6715857Y-14618857D01*
X6715857Y-14647429D01*
X6701571Y-14690286D01*
X6530143Y-14861714D01*
X6715857Y-14861714D01*
X7073000Y-14861714D02*
X7073000Y-14561714D01*
X7201571Y-14861714D02*
X7201571Y-14704571D01*
X7187285Y-14676000D01*
X7158714Y-14661714D01*
X7115857Y-14661714D01*
X7087285Y-14676000D01*
X7073000Y-14690286D01*
X7387285Y-14861714D02*
X7358714Y-14847429D01*
X7344428Y-14833143D01*
X7330143Y-14804571D01*
X7330143Y-14718857D01*
X7344428Y-14690286D01*
X7358714Y-14676000D01*
X7387285Y-14661714D01*
X7430143Y-14661714D01*
X7458714Y-14676000D01*
X7473000Y-14690286D01*
X7487285Y-14718857D01*
X7487285Y-14804571D01*
X7473000Y-14833143D01*
X7458714Y-14847429D01*
X7430143Y-14861714D01*
X7387285Y-14861714D01*
X7658714Y-14861714D02*
X7630143Y-14847429D01*
X7615857Y-14818857D01*
X7615857Y-14561714D01*
X7887286Y-14847429D02*
X7858714Y-14861714D01*
X7801571Y-14861714D01*
X7773000Y-14847429D01*
X7758714Y-14818857D01*
X7758714Y-14704571D01*
X7773000Y-14676000D01*
X7801571Y-14661714D01*
X7858714Y-14661714D01*
X7887286Y-14676000D01*
X7901571Y-14704571D01*
X7901571Y-14733143D01*
X7758714Y-14761714D01*
X8015857Y-14847429D02*
X8044428Y-14861714D01*
X8101571Y-14861714D01*
X8130143Y-14847429D01*
X8144428Y-14818857D01*
X8144428Y-14804571D01*
X8130143Y-14776000D01*
X8101571Y-14761714D01*
X8058714Y-14761714D01*
X8030143Y-14747429D01*
X8015857Y-14718857D01*
X8015857Y-14704571D01*
X8030143Y-14676000D01*
X8058714Y-14661714D01*
X8101571Y-14661714D01*
X8130143Y-14676000D01*
X8244428Y-14976000D02*
X8258714Y-14961714D01*
X8287286Y-14918857D01*
X8301571Y-14890286D01*
X8315857Y-14847429D01*
X8330143Y-14776000D01*
X8330143Y-14718857D01*
X8315857Y-14647429D01*
X8301571Y-14604571D01*
X8287286Y-14576000D01*
X8258714Y-14533143D01*
X8244428Y-14518857D01*
X1706960Y-15188040D02*
X1773000Y-15122000D01*
X1706960Y-15055960D01*
X1640920Y-15122000D01*
X1706960Y-15188040D01*
X2201571Y-15257714D02*
X2030143Y-15257714D01*
X2115857Y-15257714D02*
X2115857Y-14957714D01*
X2087286Y-15000571D01*
X2058714Y-15029143D01*
X2030143Y-15043429D01*
X2330143Y-15229143D02*
X2344429Y-15243429D01*
X2330143Y-15257714D01*
X2315857Y-15243429D01*
X2330143Y-15229143D01*
X2330143Y-15257714D01*
X2444428Y-14957714D02*
X2630143Y-14957714D01*
X2530143Y-15072000D01*
X2573000Y-15072000D01*
X2601571Y-15086286D01*
X2615857Y-15100571D01*
X2630143Y-15129143D01*
X2630143Y-15200571D01*
X2615857Y-15229143D01*
X2601571Y-15243429D01*
X2573000Y-15257714D01*
X2487286Y-15257714D01*
X2458714Y-15243429D01*
X2444428Y-15229143D01*
X2744429Y-14986286D02*
X2758714Y-14972000D01*
X2787286Y-14957714D01*
X2858714Y-14957714D01*
X2887286Y-14972000D01*
X2901571Y-14986286D01*
X2915857Y-15014857D01*
X2915857Y-15043429D01*
X2901571Y-15086286D01*
X2730143Y-15257714D01*
X2915857Y-15257714D01*
X3044428Y-15257714D02*
X3044428Y-15057714D01*
X3044428Y-15086286D02*
X3058714Y-15072000D01*
X3087286Y-15057714D01*
X3130143Y-15057714D01*
X3158714Y-15072000D01*
X3173000Y-15100571D01*
X3173000Y-15257714D01*
X3173000Y-15100571D02*
X3187286Y-15072000D01*
X3215857Y-15057714D01*
X3258714Y-15057714D01*
X3287286Y-15072000D01*
X3301571Y-15100571D01*
X3301571Y-15257714D01*
X3444428Y-15257714D02*
X3444428Y-15057714D01*
X3444428Y-15086286D02*
X3458714Y-15072000D01*
X3487286Y-15057714D01*
X3530143Y-15057714D01*
X3558714Y-15072000D01*
X3573000Y-15100571D01*
X3573000Y-15257714D01*
X3573000Y-15100571D02*
X3587286Y-15072000D01*
X3615857Y-15057714D01*
X3658714Y-15057714D01*
X3687286Y-15072000D01*
X3701571Y-15100571D01*
X3701571Y-15257714D01*
X4287286Y-14943429D02*
X4030143Y-15329143D01*
X4673000Y-14957714D02*
X4701571Y-14957714D01*
X4730143Y-14972000D01*
X4744428Y-14986286D01*
X4758714Y-15014857D01*
X4773000Y-15072000D01*
X4773000Y-15143429D01*
X4758714Y-15200571D01*
X4744428Y-15229143D01*
X4730143Y-15243429D01*
X4701571Y-15257714D01*
X4673000Y-15257714D01*
X4644428Y-15243429D01*
X4630143Y-15229143D01*
X4615857Y-15200571D01*
X4601571Y-15143429D01*
X4601571Y-15072000D01*
X4615857Y-15014857D01*
X4630143Y-14986286D01*
X4644428Y-14972000D01*
X4673000Y-14957714D01*
X4901571Y-15229143D02*
X4915857Y-15243429D01*
X4901571Y-15257714D01*
X4887286Y-15243429D01*
X4901571Y-15229143D01*
X4901571Y-15257714D01*
X5101571Y-14957714D02*
X5130143Y-14957714D01*
X5158714Y-14972000D01*
X5173000Y-14986286D01*
X5187286Y-15014857D01*
X5201571Y-15072000D01*
X5201571Y-15143429D01*
X5187286Y-15200571D01*
X5173000Y-15229143D01*
X5158714Y-15243429D01*
X5130143Y-15257714D01*
X5101571Y-15257714D01*
X5073000Y-15243429D01*
X5058714Y-15229143D01*
X5044428Y-15200571D01*
X5030143Y-15143429D01*
X5030143Y-15072000D01*
X5044428Y-15014857D01*
X5058714Y-14986286D01*
X5073000Y-14972000D01*
X5101571Y-14957714D01*
X5473000Y-14957714D02*
X5330143Y-14957714D01*
X5315857Y-15100571D01*
X5330143Y-15086286D01*
X5358714Y-15072000D01*
X5430143Y-15072000D01*
X5458714Y-15086286D01*
X5473000Y-15100571D01*
X5487286Y-15129143D01*
X5487286Y-15200571D01*
X5473000Y-15229143D01*
X5458714Y-15243429D01*
X5430143Y-15257714D01*
X5358714Y-15257714D01*
X5330143Y-15243429D01*
X5315857Y-15229143D01*
X5601571Y-14986286D02*
X5615857Y-14972000D01*
X5644428Y-14957714D01*
X5715857Y-14957714D01*
X5744428Y-14972000D01*
X5758714Y-14986286D01*
X5773000Y-15014857D01*
X5773000Y-15043429D01*
X5758714Y-15086286D01*
X5587286Y-15257714D01*
X5773000Y-15257714D01*
X5887286Y-14957714D02*
X5887286Y-15014857D01*
X6001571Y-14957714D02*
X6001571Y-15014857D01*
X6444428Y-15372000D02*
X6430143Y-15357714D01*
X6401571Y-15314857D01*
X6387285Y-15286286D01*
X6373000Y-15243429D01*
X6358714Y-15172000D01*
X6358714Y-15114857D01*
X6373000Y-15043429D01*
X6387285Y-15000571D01*
X6401571Y-14972000D01*
X6430143Y-14929143D01*
X6444428Y-14914857D01*
X6715857Y-15257714D02*
X6544428Y-15257714D01*
X6630143Y-15257714D02*
X6630143Y-14957714D01*
X6601571Y-15000571D01*
X6573000Y-15029143D01*
X6544428Y-15043429D01*
X6887285Y-15086286D02*
X6858714Y-15072000D01*
X6844428Y-15057714D01*
X6830143Y-15029143D01*
X6830143Y-15014857D01*
X6844428Y-14986286D01*
X6858714Y-14972000D01*
X6887285Y-14957714D01*
X6944428Y-14957714D01*
X6973000Y-14972000D01*
X6987285Y-14986286D01*
X7001571Y-15014857D01*
X7001571Y-15029143D01*
X6987285Y-15057714D01*
X6973000Y-15072000D01*
X6944428Y-15086286D01*
X6887285Y-15086286D01*
X6858714Y-15100571D01*
X6844428Y-15114857D01*
X6830143Y-15143429D01*
X6830143Y-15200571D01*
X6844428Y-15229143D01*
X6858714Y-15243429D01*
X6887285Y-15257714D01*
X6944428Y-15257714D01*
X6973000Y-15243429D01*
X6987285Y-15229143D01*
X7001571Y-15200571D01*
X7001571Y-15143429D01*
X6987285Y-15114857D01*
X6973000Y-15100571D01*
X6944428Y-15086286D01*
X7358714Y-15257714D02*
X7358714Y-14957714D01*
X7487285Y-15257714D02*
X7487285Y-15100571D01*
X7473000Y-15072000D01*
X7444428Y-15057714D01*
X7401571Y-15057714D01*
X7373000Y-15072000D01*
X7358714Y-15086286D01*
X7673000Y-15257714D02*
X7644428Y-15243429D01*
X7630143Y-15229143D01*
X7615857Y-15200571D01*
X7615857Y-15114857D01*
X7630143Y-15086286D01*
X7644428Y-15072000D01*
X7673000Y-15057714D01*
X7715857Y-15057714D01*
X7744428Y-15072000D01*
X7758714Y-15086286D01*
X7773000Y-15114857D01*
X7773000Y-15200571D01*
X7758714Y-15229143D01*
X7744428Y-15243429D01*
X7715857Y-15257714D01*
X7673000Y-15257714D01*
X7944428Y-15257714D02*
X7915857Y-15243429D01*
X7901571Y-15214857D01*
X7901571Y-14957714D01*
X8173000Y-15243429D02*
X8144428Y-15257714D01*
X8087286Y-15257714D01*
X8058714Y-15243429D01*
X8044428Y-15214857D01*
X8044428Y-15100571D01*
X8058714Y-15072000D01*
X8087286Y-15057714D01*
X8144428Y-15057714D01*
X8173000Y-15072000D01*
X8187286Y-15100571D01*
X8187286Y-15129143D01*
X8044428Y-15157714D01*
X8301571Y-15243429D02*
X8330143Y-15257714D01*
X8387286Y-15257714D01*
X8415857Y-15243429D01*
X8430143Y-15214857D01*
X8430143Y-15200571D01*
X8415857Y-15172000D01*
X8387286Y-15157714D01*
X8344428Y-15157714D01*
X8315857Y-15143429D01*
X8301571Y-15114857D01*
X8301571Y-15100571D01*
X8315857Y-15072000D01*
X8344428Y-15057714D01*
X8387286Y-15057714D01*
X8415857Y-15072000D01*
X8530143Y-15372000D02*
X8544429Y-15357714D01*
X8573000Y-15314857D01*
X8587286Y-15286286D01*
X8601571Y-15243429D01*
X8615857Y-15172000D01*
X8615857Y-15114857D01*
X8601571Y-15043429D01*
X8587286Y-15000571D01*
X8573000Y-14972000D01*
X8544429Y-14929143D01*
X8530143Y-14914857D01*
X1468200Y-15365600D02*
X1773000Y-15670400D01*
X1773000Y-15365600D02*
X1468200Y-15670400D01*
X1773000Y-15518000D02*
G75*
G03X1773000Y-15518000I-152400J0D01*
G01*
X2015857Y-15353714D02*
X2201571Y-15353714D01*
X2101571Y-15468000D01*
X2144429Y-15468000D01*
X2173000Y-15482286D01*
X2187286Y-15496571D01*
X2201571Y-15525143D01*
X2201571Y-15596571D01*
X2187286Y-15625143D01*
X2173000Y-15639429D01*
X2144429Y-15653714D01*
X2058714Y-15653714D01*
X2030143Y-15639429D01*
X2015857Y-15625143D01*
X2330143Y-15625143D02*
X2344429Y-15639429D01*
X2330143Y-15653714D01*
X2315857Y-15639429D01*
X2330143Y-15625143D01*
X2330143Y-15653714D01*
X2530143Y-15353714D02*
X2558714Y-15353714D01*
X2587286Y-15368000D01*
X2601571Y-15382286D01*
X2615857Y-15410857D01*
X2630143Y-15468000D01*
X2630143Y-15539429D01*
X2615857Y-15596571D01*
X2601571Y-15625143D01*
X2587286Y-15639429D01*
X2558714Y-15653714D01*
X2530143Y-15653714D01*
X2501571Y-15639429D01*
X2487286Y-15625143D01*
X2473000Y-15596571D01*
X2458714Y-15539429D01*
X2458714Y-15468000D01*
X2473000Y-15410857D01*
X2487286Y-15382286D01*
X2501571Y-15368000D01*
X2530143Y-15353714D01*
X2901571Y-15353714D02*
X2758714Y-15353714D01*
X2744429Y-15496571D01*
X2758714Y-15482286D01*
X2787286Y-15468000D01*
X2858714Y-15468000D01*
X2887286Y-15482286D01*
X2901571Y-15496571D01*
X2915857Y-15525143D01*
X2915857Y-15596571D01*
X2901571Y-15625143D01*
X2887286Y-15639429D01*
X2858714Y-15653714D01*
X2787286Y-15653714D01*
X2758714Y-15639429D01*
X2744429Y-15625143D01*
X3044428Y-15653714D02*
X3044428Y-15453714D01*
X3044428Y-15482286D02*
X3058714Y-15468000D01*
X3087286Y-15453714D01*
X3130143Y-15453714D01*
X3158714Y-15468000D01*
X3173000Y-15496571D01*
X3173000Y-15653714D01*
X3173000Y-15496571D02*
X3187286Y-15468000D01*
X3215857Y-15453714D01*
X3258714Y-15453714D01*
X3287286Y-15468000D01*
X3301571Y-15496571D01*
X3301571Y-15653714D01*
X3444428Y-15653714D02*
X3444428Y-15453714D01*
X3444428Y-15482286D02*
X3458714Y-15468000D01*
X3487286Y-15453714D01*
X3530143Y-15453714D01*
X3558714Y-15468000D01*
X3573000Y-15496571D01*
X3573000Y-15653714D01*
X3573000Y-15496571D02*
X3587286Y-15468000D01*
X3615857Y-15453714D01*
X3658714Y-15453714D01*
X3687286Y-15468000D01*
X3701571Y-15496571D01*
X3701571Y-15653714D01*
X4287286Y-15339429D02*
X4030143Y-15725143D01*
X4673000Y-15353714D02*
X4701571Y-15353714D01*
X4730143Y-15368000D01*
X4744428Y-15382286D01*
X4758714Y-15410857D01*
X4773000Y-15468000D01*
X4773000Y-15539429D01*
X4758714Y-15596571D01*
X4744428Y-15625143D01*
X4730143Y-15639429D01*
X4701571Y-15653714D01*
X4673000Y-15653714D01*
X4644428Y-15639429D01*
X4630143Y-15625143D01*
X4615857Y-15596571D01*
X4601571Y-15539429D01*
X4601571Y-15468000D01*
X4615857Y-15410857D01*
X4630143Y-15382286D01*
X4644428Y-15368000D01*
X4673000Y-15353714D01*
X4901571Y-15625143D02*
X4915857Y-15639429D01*
X4901571Y-15653714D01*
X4887286Y-15639429D01*
X4901571Y-15625143D01*
X4901571Y-15653714D01*
X5201571Y-15653714D02*
X5030143Y-15653714D01*
X5115857Y-15653714D02*
X5115857Y-15353714D01*
X5087286Y-15396571D01*
X5058714Y-15425143D01*
X5030143Y-15439429D01*
X5315857Y-15382286D02*
X5330143Y-15368000D01*
X5358714Y-15353714D01*
X5430143Y-15353714D01*
X5458714Y-15368000D01*
X5473000Y-15382286D01*
X5487286Y-15410857D01*
X5487286Y-15439429D01*
X5473000Y-15482286D01*
X5301571Y-15653714D01*
X5487286Y-15653714D01*
X5673000Y-15353714D02*
X5701571Y-15353714D01*
X5730143Y-15368000D01*
X5744428Y-15382286D01*
X5758714Y-15410857D01*
X5773000Y-15468000D01*
X5773000Y-15539429D01*
X5758714Y-15596571D01*
X5744428Y-15625143D01*
X5730143Y-15639429D01*
X5701571Y-15653714D01*
X5673000Y-15653714D01*
X5644428Y-15639429D01*
X5630143Y-15625143D01*
X5615857Y-15596571D01*
X5601571Y-15539429D01*
X5601571Y-15468000D01*
X5615857Y-15410857D01*
X5630143Y-15382286D01*
X5644428Y-15368000D01*
X5673000Y-15353714D01*
X5887286Y-15353714D02*
X5887286Y-15410857D01*
X6001571Y-15353714D02*
X6001571Y-15410857D01*
X6444428Y-15768000D02*
X6430143Y-15753714D01*
X6401571Y-15710857D01*
X6387285Y-15682286D01*
X6373000Y-15639429D01*
X6358714Y-15568000D01*
X6358714Y-15510857D01*
X6373000Y-15439429D01*
X6387285Y-15396571D01*
X6401571Y-15368000D01*
X6430143Y-15325143D01*
X6444428Y-15310857D01*
X6687285Y-15453714D02*
X6687285Y-15653714D01*
X6615857Y-15339429D02*
X6544428Y-15553714D01*
X6730143Y-15553714D01*
X7073000Y-15653714D02*
X7073000Y-15353714D01*
X7201571Y-15653714D02*
X7201571Y-15496571D01*
X7187285Y-15468000D01*
X7158714Y-15453714D01*
X7115857Y-15453714D01*
X7087285Y-15468000D01*
X7073000Y-15482286D01*
X7387285Y-15653714D02*
X7358714Y-15639429D01*
X7344428Y-15625143D01*
X7330143Y-15596571D01*
X7330143Y-15510857D01*
X7344428Y-15482286D01*
X7358714Y-15468000D01*
X7387285Y-15453714D01*
X7430143Y-15453714D01*
X7458714Y-15468000D01*
X7473000Y-15482286D01*
X7487285Y-15510857D01*
X7487285Y-15596571D01*
X7473000Y-15625143D01*
X7458714Y-15639429D01*
X7430143Y-15653714D01*
X7387285Y-15653714D01*
X7658714Y-15653714D02*
X7630143Y-15639429D01*
X7615857Y-15610857D01*
X7615857Y-15353714D01*
X7887286Y-15639429D02*
X7858714Y-15653714D01*
X7801571Y-15653714D01*
X7773000Y-15639429D01*
X7758714Y-15610857D01*
X7758714Y-15496571D01*
X7773000Y-15468000D01*
X7801571Y-15453714D01*
X7858714Y-15453714D01*
X7887286Y-15468000D01*
X7901571Y-15496571D01*
X7901571Y-15525143D01*
X7758714Y-15553714D01*
X8015857Y-15639429D02*
X8044428Y-15653714D01*
X8101571Y-15653714D01*
X8130143Y-15639429D01*
X8144428Y-15610857D01*
X8144428Y-15596571D01*
X8130143Y-15568000D01*
X8101571Y-15553714D01*
X8058714Y-15553714D01*
X8030143Y-15539429D01*
X8015857Y-15510857D01*
X8015857Y-15496571D01*
X8030143Y-15468000D01*
X8058714Y-15453714D01*
X8101571Y-15453714D01*
X8130143Y-15468000D01*
X8244428Y-15768000D02*
X8258714Y-15753714D01*
X8287286Y-15710857D01*
X8301571Y-15682286D01*
X8315857Y-15639429D01*
X8330143Y-15568000D01*
X8330143Y-15510857D01*
X8315857Y-15439429D01*
X8301571Y-15396571D01*
X8287286Y-15368000D01*
X8258714Y-15325143D01*
X8244428Y-15310857D01*
M02*
