M48
;DRILL file {KiCad 4.0.7} date 01/04/18 14:32:43
;FORMAT={-:-/ absolute / metric / decimal}
FMAT,2
METRIC,TZ
T1C0.762
T2C0.813
T3C1.000
T4C1.001
T5C1.321
T6C3.048
%
G90
G05
M71
T1
X74.93Y-62.23
X74.93Y-77.47
X74.93Y-82.55
X74.93Y-97.79
X74.93Y-102.87
X74.93Y-118.11
X83.82Y-77.47
X83.82Y-97.79
X83.82Y-118.11
X86.36Y-77.47
X86.36Y-97.79
X86.36Y-118.11
X106.68Y-62.23
X106.68Y-77.47
X106.68Y-82.55
X106.68Y-97.79
X106.68Y-102.87
X106.68Y-118.11
T2
X27.94Y-81.28
X27.94Y-96.52
X30.48Y-81.28
X30.48Y-96.52
X33.02Y-81.28
X33.02Y-96.52
X35.56Y-81.28
X35.56Y-96.52
X38.1Y-81.28
X38.1Y-96.52
X40.64Y-81.28
X40.64Y-96.52
X43.18Y-81.28
X43.18Y-96.52
X45.72Y-81.28
X45.72Y-96.52
X48.26Y-81.28
X48.26Y-96.52
X50.8Y-81.28
X50.8Y-96.52
X53.34Y-81.28
X53.34Y-96.52
X55.88Y-81.28
X55.88Y-96.52
X58.42Y-81.28
X58.42Y-96.52
X60.96Y-81.28
X60.96Y-96.52
X63.5Y-81.28
X63.5Y-96.52
T3
X21.59Y-85.09
X21.59Y-87.63
X21.59Y-90.17
X21.59Y-92.71
T4
X53.34Y-71.12
X68.34Y-71.12
T5
X24.37Y-107.95
X26.67Y-71.12
X29.37Y-107.95
X31.67Y-71.12
X34.37Y-107.95
X39.37Y-71.12
X39.37Y-107.95
X44.37Y-71.12
X48.5Y-107.95
X53.5Y-107.95
X58.5Y-107.95
X63.5Y-107.95
X116.84Y-71.12
X116.84Y-76.12
X116.84Y-87.63
X116.84Y-92.63
X116.84Y-107.95
X116.84Y-112.95
T6
X21.59Y-62.23
X22.86Y-120.65
X118.11Y-121.92
X119.38Y-62.23
T0
M30
